<?xml version="1.0" encoding="utf-8"?>
<!-- Generator: Adobe Illustrator 15.0.0, SVG Export Plug-In  -->
<!DOCTYPE svg PUBLIC "-//W3C//DTD SVG 1.1//EN" "http://www.w3.org/Graphics/SVG/1.1/DTD/svg11.dtd" [
	<!ENTITY ns_flows "http://ns.adobe.com/Flows/1.0/">
]>
<svg version="1.1"
	 xmlns="http://www.w3.org/2000/svg" xmlns:xlink="http://www.w3.org/1999/xlink" xmlns:a="http://ns.adobe.com/AdobeSVGViewerExtensions/3.0/"
	 x="0px" y="0px" width="80px" height="80px" viewBox="-19.069 -17 80 80" enable-background="new -19.069 -17 80 80"
	 xml:space="preserve">
<defs>
</defs>
<g>
	<g>
		<path fill-rule="evenodd" clip-rule="evenodd" fill="#FFFFFF" d="M41.64,38.748c-2.601-3.313-5.699-9.225-5.699-18.565
			c0-6.078-1.712-10.467-5.088-13.046c-0.04-0.031-0.08-0.052-0.12-0.082V5.218c0,0.108-0.011,0.208-0.024,0.305
			c0-0.101,0-0.203,0-0.309c0-0.705-0.867-1.903-2.783-1.903h-0.001c-1.007,0-2.31,0.339-3.923,1.249
			c0.153-0.385,0.242-0.805,0.242-1.247c0-1.83-1.455-3.313-3.25-3.313s-3.25,1.482-3.25,3.313c0,0.442,0.088,0.861,0.242,1.247
			c-1.614-0.909-2.916-1.249-3.923-1.249c-1.917,0-2.784,1.198-2.784,1.903c0,0.105,0,0.208,0,0.309
			c-0.014-0.097-0.024-0.197-0.024-0.305v1.807C8.58,8.979,6.048,12.783,6.048,20.183c0,9.343-3.1,15.253-5.7,18.564
			c-0.383,0.488-0.456,1.154-0.188,1.715c0.268,0.562,0.83,0.917,1.446,0.917h12.888c0.002,3.657,2.912,6.621,6.5,6.621
			c3.589,0,6.498-2.964,6.5-6.621h12.889c0.615,0,1.177-0.355,1.445-0.916C42.095,39.902,42.021,39.235,41.64,38.748z M20.993,1.656
			c0.897,0,1.625,0.742,1.625,1.656s-0.728,1.656-1.625,1.656s-1.625-0.742-1.625-1.656S20.096,1.656,20.993,1.656z M21.045,6.62
			c-0.017,0.013-0.034,0.026-0.052,0.041c-0.018-0.015-0.035-0.027-0.052-0.041c0.018,0,0.034,0.005,0.051,0.005
			C21.011,6.625,21.028,6.62,21.045,6.62z M12.877,5.524l0.024-0.002V5.376V5.359c0.104-0.138,0.446-0.394,1.161-0.394
			c0.858,0,2.767,0.388,5.91,2.981l1.021,0.843l1.021-0.843c3.143-2.594,5.052-2.981,5.91-2.981c0.715,0,1.057,0.256,1.16,0.394
			v0.018v0.146l0.024,0.002v5.161c0,0.342-1.013,0.599-2.355,0.599c-0.26,0-0.524-0.019-0.788-0.036l-0.15-0.011l-2.254-0.148
			l0.581,2.226l0.964,3.697l-0.396-0.024l-0.322,0.218L23.056,12.1l-0.292-1.12l-1.132-0.104l-0.547-0.05l-0.146-0.014l-0.146,0.014
			l-0.439,0.041l-1.13,0.105l-0.292,1.117l-1.334,5.115l-0.322-0.218l-0.397,0.024l0.962-3.688l0.581-2.227l-2.254,0.148
			c-0.313,0.021-0.627,0.038-0.936,0.038c-1.342,0-2.354-0.257-2.354-0.599V5.524z M11.254,9.17v1.515
			c0,1.76,1.875,2.254,3.978,2.254c0.343,0,0.693-0.019,1.041-0.041l-1.54,5.903l2.098-0.129l1.754,1.189l1.917-7.347l0.439-0.041
			l0.547,0.05l1.914,7.338l1.754-1.189l2.099,0.129l-1.542-5.913c0.348,0.023,0.699,0.051,1.042,0.051
			c2.104,0,3.979-0.493,3.979-2.254V9.167c1.946,1.911,3.603,5.235,3.603,11.016c0,2.287,0.18,4.376,0.489,6.286H7.165
			c0.309-1.91,0.489-4,0.489-6.286C7.653,14.406,9.308,11.082,11.254,9.17z M6.851,28.125h28.287
			c0.541,2.553,1.311,4.756,2.187,6.625H4.663C5.539,32.881,6.309,30.678,6.851,28.125z M20.993,46.344
			c-2.692,0-4.875-2.225-4.875-4.969h9.75C25.868,44.119,23.686,46.344,20.993,46.344z M30.743,39.756v-0.037h-3.467h-1.707h-9.153
			h-1.708h-3.466v0.037H1.605c0.732-0.933,1.49-2.047,2.213-3.35h34.351c0.723,1.303,1.481,2.418,2.213,3.35H30.743z"/>
	</g>
</g>
</svg>
