<?xml version="1.0" encoding="utf-8"?>
<!-- Generator: Adobe Illustrator 15.0.0, SVG Export Plug-In  -->
<!DOCTYPE svg PUBLIC "-//W3C//DTD SVG 1.1//EN" "http://www.w3.org/Graphics/SVG/1.1/DTD/svg11.dtd" [
	<!ENTITY ns_flows "http://ns.adobe.com/Flows/1.0/">
]>
<svg version="1.1"
	 xmlns="http://www.w3.org/2000/svg" xmlns:xlink="http://www.w3.org/1999/xlink" xmlns:a="http://ns.adobe.com/AdobeSVGViewerExtensions/3.0/"
	 x="0px" y="0px" width="80px" height="80px" viewBox="-12 -16.977 80 80" enable-background="new -12 -16.977 80 80"
	 xml:space="preserve">
<defs>
</defs>
<g>
	<g>
		<path fill-rule="evenodd" clip-rule="evenodd" fill="#FFFFFF" d="M4.587,7.337c-2.608,5.163,10.627,5.667,15.89,5.667
			c1.274,0,2.082-0.03,2.082-0.03S13.514,5.359,8.02,5.359C6.531,5.359,5.304,5.918,4.587,7.337z M6.269,8.529
			c0.014-0.035,0.033-0.082,0.063-0.14C6.555,7.947,6.914,7.537,8.02,7.537c2.104,0,5.086,1.475,7.767,3.152
			C9.836,10.32,6.866,9.277,6.269,8.529z M55.932,6.419c0-0.294-0.002-0.591-0.002-0.896c0-2.046-2.494-5.521-8.002-5.522
			c-0.001,0-0.001,0-0.001,0h-0.001c-4.518,0-11.063,2.339-19.925,9.72c-8.863-7.381-15.41-9.719-19.929-9.719
			c-5.51,0-8.003,3.476-8.003,5.521c0,0.306-0.001,0.603-0.001,0.896C0.029,6.137,0,5.847,0,5.535v15.861
			c0,5.106,5.389,6.539,11.438,6.539c0.985,0,1.99-0.053,2.991-0.119L10,44.944l6.032-0.375l5.043,3.45l5.511-21.313l1.262-0.118
			l1.573,0.145l5.504,21.287l5.043-3.45L46,44.944L41.564,27.79c1.003,0.066,2.01,0.146,2.998,0.146
			c6.05,0,11.438-1.432,11.438-6.539V5.535C56,5.848,55.971,6.137,55.932,6.419z M54,21.396c0,3.019-3.175,4.549-9.438,4.549
			c-0.78,0-1.585-0.055-2.438-0.113l-0.428-0.028l-2.759-0.183l0.689,2.665l3.749,14.501l-3.284-0.205l-0.689-0.042l-0.568,0.389
			l-2.687,1.838l-4.791-18.529l-0.351-1.357l-1.402-0.129l-1.572-0.145l-0.186-0.017l-0.186,0.018l-1.262,0.117L25,24.855
			l-0.351,1.354l-4.798,18.557l-2.687-1.838l-0.568-0.389l-0.688,0.042l-3.285,0.205l3.742-14.475l0.689-2.664l-2.759,0.182
			c-0.857,0.058-1.867,0.115-2.858,0.115C5.175,25.945,2,24.415,2,21.396V6.424l0.068-0.005l0.001-0.436V5.522
			c0-0.779,1.438-3.53,6.003-3.53c3.437,0,9.46,1.605,18.646,9.254l1.283,1.069l1.284-1.069c9.184-7.649,15.207-9.255,18.643-9.255
			c4.564,0.001,6.002,2.753,6.002,3.531l0.001,0.463l0.001,0.434L54,6.424V21.396z M28,14.023c-2.209,0-4,1.791-4,4s1.791,4,4,4
			s4-1.791,4-4S30.209,14.023,28,14.023z M28,20.023c-1.104,0-2-0.896-2-2s0.896-2,2-2s2,0.896,2,2S29.104,20.023,28,20.023z
			 M47.951,5.359c-5.494,0.001-14.539,7.614-14.539,7.614s0.806,0.03,2.082,0.03c5.263,0,18.499-0.504,15.889-5.667
			C50.666,5.917,49.439,5.359,47.951,5.359z M40.18,10.689c2.681-1.678,5.663-3.151,7.773-3.152c1.103,0,1.462,0.41,1.686,0.853
			c0.029,0.058,0.05,0.104,0.063,0.141C49.104,9.277,46.132,10.32,40.18,10.689z"/>
	</g>
</g>
</svg>
