<?xml version="1.0" encoding="utf-8"?>
<!-- Generator: Adobe Illustrator 15.0.0, SVG Export Plug-In  -->
<!DOCTYPE svg PUBLIC "-//W3C//DTD SVG 1.1//EN" "http://www.w3.org/Graphics/SVG/1.1/DTD/svg11.dtd" [
	<!ENTITY ns_flows "http://ns.adobe.com/Flows/1.0/">
]>
<svg version="1.1"
	 xmlns="http://www.w3.org/2000/svg" xmlns:xlink="http://www.w3.org/1999/xlink" xmlns:a="http://ns.adobe.com/AdobeSVGViewerExtensions/3.0/"
	 x="0px" y="0px" width="80px" height="80px" viewBox="-18.028 -17 80 80" enable-background="new -18.028 -17 80 80"
	 xml:space="preserve">
<defs>
</defs>
<path fill="#FFFFFF" d="M24.016,1.6v6.303l2.869-1.956l2.271,3.154l-5.141,3.507v5.029l1.798-1.227l0.885-0.579l-0.182,3.067
	l4.186-2.604l0.271-6.256l3.955,0.164l-0.154,3.559l5.531-3.438l2.126,3.239l-5.454,3.393l3.24,1.301l-1.508,3.563l-5.808-2.329
	l-4.526,2.817l1.856,0.743l2.285,1.013l-4.138,1.633l4.522,2.813l5.808-2.328l1.508,3.563l-3.24,1.3l5.454,3.396l-2.126,3.239
	l-5.531-3.442l0.154,3.561l-3.955,0.166l-0.271-6.257l-4.177-2.599l0.173,2.906l-0.885-0.576l-1.858-1.268v5.137l5.271,3.593
	l-2.271,3.155l-2.999-2.045V46.4h-3.949v-6.302l-2.872,1.957L14.862,38.9l5.144-3.508v-5.126l-1.717,1.172l-0.885,0.576l0.174-2.96
	l-4.259,2.651l-0.272,6.257L9.09,37.797l0.157-3.561l-5.53,3.442l-2.131-3.239l5.459-3.396l-3.241-1.3l1.507-3.563l5.807,2.328
	l4.601-2.859l-4.017-1.586l2.285-1.013l1.737-0.696l-4.606-2.864l-5.807,2.329l-1.508-3.563l3.241-1.301l-5.458-3.393l2.131-3.239
	l5.53,3.438L9.09,10.203l3.957-0.164l0.272,6.256l4.27,2.656l-0.185-3.12l0.885,0.579l1.775,1.211v-4.927L14.796,9.1l2.271-3.154
	l2.998,2.044V1.6H24.016 M20.129,27.172h3.763l1.881-3.171l-1.881-3.171h-3.763l-1.881,3.171L20.129,27.172 M24.016,0h-3.951
	c-0.877,0-1.587,0.717-1.587,1.6v3.377L17.954,4.62c-0.271-0.186-0.581-0.274-0.887-0.274c-0.491,0-0.975,0.229-1.285,0.66
	L13.512,8.16c-0.069,0.096-0.127,0.198-0.173,0.306c-0.095-0.018-0.191-0.026-0.291-0.026c-0.022,0-0.044,0-0.066,0.001L9.025,8.604
	C8.604,8.622,8.207,8.809,7.922,9.121C7.637,9.435,7.487,9.85,7.506,10.274l0.023,0.54l-2.98-1.854
	C4.29,8.8,4.002,8.723,3.718,8.723c-0.515,0-1.019,0.253-1.323,0.716l-2.13,3.239c-0.238,0.361-0.32,0.805-0.228,1.229
	s0.351,0.791,0.717,1.019l2.77,1.722L3.217,16.77c-0.397,0.159-0.714,0.474-0.878,0.871c-0.164,0.398-0.162,0.847,0.005,1.243
	l1.508,3.563c0.257,0.606,0.843,0.973,1.459,0.973c0.196,0,0.394-0.037,0.586-0.114l5.066-2.032l1.286,0.8l-1.187,0.525
	c-0.587,0.26-0.961,0.851-0.947,1.497c0.013,0.646,0.41,1.222,1.008,1.457l1.055,0.417l-1.215,0.756l-5.065-2.031
	c-0.192-0.077-0.391-0.113-0.586-0.113c-0.617,0-1.203,0.365-1.46,0.972l-1.507,3.563c-0.168,0.397-0.17,0.846-0.006,1.243
	c0.165,0.398,0.481,0.713,0.878,0.872l0.309,0.123l-2.771,1.724c-0.366,0.228-0.624,0.595-0.717,1.019
	c-0.093,0.423-0.011,0.866,0.228,1.228l2.13,3.239c0.305,0.464,0.809,0.716,1.323,0.716c0.284,0,0.572-0.076,0.831-0.238l2.98-1.854
	l-0.023,0.54c-0.019,0.425,0.131,0.84,0.415,1.153c0.285,0.313,0.683,0.499,1.104,0.517l3.957,0.165
	c0.021,0.002,0.044,0.002,0.066,0.002c0.121,0,0.239-0.014,0.354-0.04c0.046,0.111,0.105,0.218,0.178,0.317l2.271,3.156
	c0.31,0.43,0.793,0.66,1.285,0.66c0.306,0,0.614-0.09,0.887-0.275l0.396-0.271v3.29c0,0.884,0.711,1.6,1.587,1.6h3.949
	c0.876,0,1.587-0.716,1.587-1.6v-3.377l0.523,0.356c0.271,0.186,0.581,0.274,0.887,0.274c0.492,0,0.976-0.229,1.285-0.659
	l2.271-3.156c0.068-0.096,0.126-0.197,0.172-0.304c0.095,0.019,0.192,0.027,0.292,0.027c0.022,0,0.045,0,0.067-0.002l3.954-0.165
	c0.421-0.018,0.818-0.204,1.103-0.517c0.285-0.313,0.436-0.728,0.417-1.152l-0.023-0.542l2.982,1.855
	c0.259,0.162,0.547,0.238,0.831,0.238c0.516,0,1.02-0.252,1.324-0.717l2.127-3.239c0.236-0.361,0.318-0.804,0.227-1.228
	c-0.093-0.423-0.351-0.79-0.717-1.017l-2.769-1.724l0.308-0.124c0.397-0.159,0.715-0.474,0.879-0.872
	c0.164-0.397,0.162-0.847-0.006-1.243l-1.508-3.563c-0.257-0.606-0.843-0.972-1.46-0.972c-0.194,0-0.393,0.036-0.585,0.113
	l-5.067,2.031l-1.138-0.708l1.176-0.464c0.598-0.235,0.995-0.811,1.009-1.458c0.013-0.646-0.361-1.237-0.948-1.497l-1.301-0.576
	l1.202-0.749l5.067,2.032c0.191,0.077,0.391,0.114,0.585,0.114c0.618,0,1.203-0.366,1.46-0.973l1.508-3.563
	c0.168-0.396,0.17-0.845,0.006-1.242c-0.164-0.398-0.481-0.713-0.879-0.872l-0.307-0.123l2.768-1.723
	c0.365-0.227,0.624-0.594,0.717-1.018c0.092-0.423,0.01-0.866-0.227-1.227l-2.127-3.24c-0.305-0.464-0.809-0.717-1.324-0.717
	c-0.284,0-0.571,0.077-0.831,0.238l-2.982,1.855l0.023-0.543c0.019-0.425-0.132-0.84-0.417-1.152
	c-0.285-0.313-0.682-0.499-1.103-0.517L31.039,8.44c-0.021-0.001-0.044-0.001-0.066-0.001c-0.121,0-0.24,0.014-0.354,0.04
	c-0.047-0.112-0.106-0.22-0.179-0.319l-2.271-3.154c-0.311-0.43-0.794-0.66-1.285-0.66c-0.306,0-0.614,0.09-0.887,0.275L25.602,4.89
	V1.6C25.602,0.717,24.892,0,24.016,0L24.016,0z M25.602,13.457l3.747-2.557l-0.195,4.479l-0.872,0.542
	c0.034-0.601-0.27-1.169-0.785-1.472c-0.247-0.146-0.522-0.218-0.798-0.218c-0.301,0-0.602,0.086-0.863,0.257l-0.233,0.153V13.457
	L25.602,13.457z M14.867,15.379l-0.192-4.43l3.803,2.595v1.082l-0.21-0.138c-0.262-0.171-0.563-0.257-0.863-0.257
	c-0.275,0-0.551,0.072-0.798,0.218c-0.518,0.303-0.821,0.875-0.785,1.478l0.003,0.047L14.867,15.379L14.867,15.379z M21.028,22.43
	h1.964l0.933,1.571l-0.933,1.571h-1.964l-0.932-1.571L21.028,22.43L21.028,22.43z M14.867,32.622l0.951-0.592
	c0.006,0.561,0.302,1.081,0.786,1.366c0.248,0.146,0.524,0.218,0.8,0.218c0.3,0,0.599-0.085,0.86-0.255l0.154-0.102v1.285
	l-3.747,2.555L14.867,32.622L14.867,32.622z M26.698,33.614c0.275,0,0.553-0.073,0.8-0.219c0.47-0.276,0.763-0.774,0.784-1.314
	l0.871,0.542l0.193,4.428l-3.805-2.594v-1.291l0.296,0.192C26.099,33.528,26.398,33.614,26.698,33.614L26.698,33.614z"/>
</svg>
