<?xml version="1.0" encoding="utf-8"?>
<!-- Generator: Adobe Illustrator 15.0.0, SVG Export Plug-In  -->
<!DOCTYPE svg PUBLIC "-//W3C//DTD SVG 1.1//EN" "http://www.w3.org/Graphics/SVG/1.1/DTD/svg11.dtd" [
	<!ENTITY ns_flows "http://ns.adobe.com/Flows/1.0/">
]>
<svg version="1.1"
	 xmlns="http://www.w3.org/2000/svg" xmlns:xlink="http://www.w3.org/1999/xlink" xmlns:a="http://ns.adobe.com/AdobeSVGViewerExtensions/3.0/"
	 x="0px" y="0px" width="80px" height="80px" viewBox="-20 -17 80 80" enable-background="new -20 -17 80 80" xml:space="preserve">
<defs>
</defs>
<g>
	<g>
		<path fill-rule="evenodd" clip-rule="evenodd" fill="#FFFFFF" d="M24.944,16l-1.708-6.05L28,6.111L22,5.95L20,0l-2,5.95l-6,0.161
			l4.764,3.839L15.056,16L20,12.422L24.944,16z M17.846,12.006l0.458-1.621c0.175-0.617-0.036-1.278-0.536-1.681l-1.378-1.11
			l1.653-0.044c0.671-0.019,1.26-0.453,1.474-1.09L20,5.021l0.483,1.438c0.214,0.637,0.803,1.071,1.474,1.09l1.652,0.044
			l-1.377,1.11c-0.5,0.402-0.711,1.063-0.536,1.681l0.458,1.621l-1.217-0.88c-0.279-0.202-0.608-0.304-0.938-0.304
			s-0.658,0.102-0.938,0.304L17.846,12.006z M30.774,32H36.8l-10.006-9.6H30.4l-5.592-6.883L24.944,16l-4.689-3.394L26.4,20.8h-3.2
			l9.621,9.601H27.2l9.043,9.6H3.757l9.043-9.6H7.179L16.8,20.8h-3.721l6.616-8.157L15.056,16l0.136-0.482L9.601,22.4h3.605L3.2,32
			h6.025L0,41.6h11.188V48h16v-6.4H40L30.774,32z M25.594,46.406H24v-3.219h-1.594v3.219h-1.594v-1.594h-1.625v1.594H16v-3.219
			h-1.594v3.219h-1.594v-4.813h12.781V46.406z"/>
	</g>
</g>
</svg>
