<?xml version="1.0" encoding="utf-8"?>
<!-- Generator: Adobe Illustrator 15.0.0, SVG Export Plug-In  -->
<!DOCTYPE svg PUBLIC "-//W3C//DTD SVG 1.1//EN" "http://www.w3.org/Graphics/SVG/1.1/DTD/svg11.dtd" [
	<!ENTITY ns_flows "http://ns.adobe.com/Flows/1.0/">
]>
<svg version="1.1"
	 xmlns="http://www.w3.org/2000/svg" xmlns:xlink="http://www.w3.org/1999/xlink" xmlns:a="http://ns.adobe.com/AdobeSVGViewerExtensions/3.0/"
	 x="0px" y="0px" width="30px" height="30px" viewBox="-5.438 -3.564 30 30" enable-background="new -5.438 -3.564 30 30"
	 xml:space="preserve">
<defs>
</defs>
<path d="M16.476,8.33c0,3.154-0.003,6.312,0.004,9.467c0.001,0.553-0.276,0.913-0.712,1.183c-0.123,0.075-0.261,0.104-0.408,0.104
	c-0.412-0.004-0.825-0.001-1.239-0.001c-0.067,0-0.135,0-0.211,0c-0.01,0.043-0.02,0.077-0.021,0.111
	c-0.003,0.059-0.001,0.114-0.001,0.17c0,1.019-0.002,2.037,0.001,3.056c0,0.286-0.058,0.557-0.189,0.811
	c-0.11,0.21-0.257,0.382-0.446,0.519c-0.483,0.349-1.12,0.329-1.579-0.055c-0.288-0.239-0.461-0.549-0.528-0.918
	c-0.022-0.128-0.033-0.262-0.033-0.391c-0.003-1.024-0.001-2.049-0.001-3.075c0-0.066-0.003-0.134-0.007-0.219
	c-0.744,0-1.465,0-2.196,0c-0.008,0.038-0.019,0.071-0.02,0.106c-0.004,0.056-0.002,0.113-0.002,0.169c0,1.024-0.001,2.05,0,3.074
	c0.001,0.28-0.059,0.545-0.188,0.792c-0.098,0.191-0.23,0.354-0.399,0.485c-0.492,0.387-1.163,0.372-1.638-0.038
	c-0.289-0.25-0.457-0.57-0.517-0.947c-0.019-0.123-0.027-0.248-0.027-0.372c-0.002-1.013,0-2.026-0.002-3.039
	c0-0.073,0.008-0.147-0.015-0.23c-0.063-0.003-0.124-0.009-0.184-0.009c-0.413,0-0.827-0.005-1.24,0.003
	c-0.221,0.003-0.41-0.065-0.586-0.193c-0.175-0.126-0.313-0.282-0.422-0.467c-0.1-0.17-0.151-0.352-0.15-0.552
	c0.003-0.549,0.001-1.101,0.001-1.649c0-2.63,0-5.262,0-7.891c0-0.075,0-0.15,0-0.232c0.043-0.009,0.076-0.022,0.111-0.023
	C3.68,8.073,3.729,8.076,3.778,8.076c4.146,0,8.293,0,12.44,0c0.08,0,0.159-0.012,0.246,0.017c0.004,0.038,0.011,0.074,0.013,0.11
	C16.478,8.243,16.476,8.286,16.476,8.33z M3.613,7.314C3.56,7.253,3.576,7.197,3.578,7.141c0.018-0.694,0.168-1.36,0.444-1.997
	c0.474-1.087,1.22-1.943,2.192-2.599c0.18-0.12,0.37-0.225,0.557-0.335c0.048-0.028,0.097-0.055,0.163-0.092
	C6.897,2.05,6.869,1.996,6.839,1.941c-0.31-0.548-0.621-1.095-0.932-1.643C5.884,0.255,5.858,0.214,5.839,0.167
	c-0.022-0.059-0.003-0.111,0.05-0.145c0.05-0.035,0.107-0.028,0.148,0.023C6.07,0.09,6.098,0.139,6.126,0.188
	C6.438,0.733,6.75,1.28,7.062,1.825c0.034,0.059,0.07,0.116,0.109,0.183c0.047-0.017,0.087-0.028,0.125-0.046
	c0.589-0.25,1.202-0.415,1.836-0.494c0.503-0.063,1.008-0.068,1.514-0.021c0.712,0.065,1.396,0.238,2.056,0.515
	c0.04,0.018,0.08,0.028,0.124,0.045c0.036-0.058,0.069-0.111,0.101-0.163c0.314-0.552,0.632-1.104,0.945-1.653
	c0.025-0.043,0.049-0.086,0.078-0.128c0.047-0.062,0.106-0.076,0.16-0.04c0.06,0.037,0.078,0.091,0.046,0.16
	c-0.024,0.05-0.053,0.1-0.081,0.148c-0.305,0.536-0.607,1.071-0.912,1.608c-0.03,0.053-0.06,0.108-0.092,0.164
	c0.037,0.062,0.1,0.078,0.152,0.104c0.586,0.315,1.119,0.707,1.583,1.19c0.754,0.78,1.266,1.701,1.5,2.772
	c0.07,0.324,0.103,0.652,0.12,0.983c0.003,0.044,0.001,0.085,0.001,0.14c-0.043,0.008-0.077,0.018-0.11,0.02
	c-0.05,0.005-0.101,0.001-0.148,0.001c-4.109,0-8.218,0-12.327,0C3.763,7.314,3.683,7.314,3.613,7.314z M12.444,4.574
	c0.005,0.33,0.279,0.598,0.609,0.598c0.344,0.002,0.613-0.271,0.61-0.614c0.008-0.268-0.205-0.615-0.617-0.611
	C12.661,3.951,12.441,4.273,12.444,4.574z M6.332,4.561c0,0.333,0.266,0.605,0.599,0.61c0.344,0.006,0.62-0.263,0.622-0.604
	c0.002-0.34-0.273-0.629-0.606-0.622C6.551,3.951,6.332,4.272,6.332,4.561z M2.774,9.542c0-0.068,0.002-0.137-0.003-0.205
	c-0.03-0.485-0.215-0.896-0.6-1.197C1.705,7.776,1.076,7.776,0.608,8.134C0.376,8.313,0.212,8.543,0.109,8.818
	C0.031,9.025,0,9.239,0,9.461c0.002,1.923,0.001,3.847,0.001,5.77c0,0.038-0.001,0.075,0.001,0.112
	c0.027,0.449,0.188,0.839,0.522,1.143c0.506,0.454,1.234,0.447,1.736-0.01c0.157-0.144,0.279-0.315,0.366-0.512
	c0.103-0.231,0.147-0.476,0.147-0.729c-0.001-0.96,0-1.923,0-2.885C2.774,11.416,2.774,10.48,2.774,9.542z M19.994,12.348
	c0-0.944,0-1.886,0-2.829c0-0.075,0.003-0.15-0.003-0.225c-0.038-0.472-0.226-0.867-0.602-1.157
	c-0.479-0.371-1.122-0.358-1.591,0.025c-0.253,0.205-0.419,0.472-0.51,0.786c-0.05,0.181-0.068,0.368-0.068,0.556
	c0.001,1.892,0.001,3.785,0.001,5.677c0,0.043-0.001,0.086,0.001,0.13c0.02,0.428,0.157,0.807,0.46,1.112
	c0.511,0.517,1.287,0.533,1.818,0.036c0.146-0.138,0.261-0.299,0.344-0.481c0.105-0.23,0.151-0.473,0.149-0.728
	C19.993,14.284,19.994,13.315,19.994,12.348z"/>
</svg>
