<?xml version="1.0" encoding="utf-8"?>
<!-- Generator: Adobe Illustrator 15.0.0, SVG Export Plug-In  -->
<!DOCTYPE svg PUBLIC "-//W3C//DTD SVG 1.1//EN" "http://www.w3.org/Graphics/SVG/1.1/DTD/svg11.dtd" [
	<!ENTITY ns_flows "http://ns.adobe.com/Flows/1.0/">
]>
<svg version="1.1"
	 xmlns="http://www.w3.org/2000/svg" xmlns:xlink="http://www.w3.org/1999/xlink" xmlns:a="http://ns.adobe.com/AdobeSVGViewerExtensions/3.0/"
	 x="0px" y="0px" width="30px" height="30px" viewBox="-6.914 -6.001 30 30" enable-background="new -6.914 -6.001 30 30"
	 xml:space="preserve">
<defs>
</defs>
<path d="M16.022,14.691c-0.053,0.152-0.104,0.316-0.163,0.476c-0.492,1.346-1.237,2.539-2.142,3.634
	c-0.175,0.213-0.378,0.406-0.587,0.585c-0.416,0.355-0.894,0.57-1.446,0.59c-0.415,0.014-0.813-0.063-1.198-0.221
	c-0.277-0.115-0.551-0.243-0.834-0.348c-0.915-0.336-1.825-0.291-2.726,0.068c-0.325,0.131-0.646,0.273-0.976,0.387
	c-0.383,0.13-0.781,0.183-1.187,0.105c-0.354-0.067-0.663-0.233-0.95-0.448c-0.356-0.267-0.655-0.592-0.936-0.937
	c-1.325-1.635-2.214-3.483-2.644-5.555c-0.185-0.89-0.273-1.788-0.219-2.698C0.079,9.239,0.33,8.2,0.906,7.264
	c0.723-1.177,1.743-1.947,3.085-2.266c0.808-0.192,1.593-0.113,2.362,0.187C6.759,5.341,7.166,5.497,7.572,5.65
	c0.375,0.143,0.747,0.143,1.123-0.003c0.414-0.16,0.83-0.319,1.246-0.476c0.428-0.158,0.862-0.287,1.315-0.323
	c0.679-0.056,1.341,0.033,1.984,0.252c0.913,0.309,1.655,0.855,2.216,1.651c0.016,0.022,0.031,0.046,0.043,0.063
	c-1.414,0.998-2.22,2.314-2.102,4.099C13.516,12.7,14.467,13.907,16.022,14.691z M8.09,4.628c0.417,0.011,0.818-0.07,1.205-0.226
	c1.762-0.708,2.683-2.594,2.654-4.036C11.947,0.251,11.939,0.135,11.935,0c-0.181,0.027-0.347,0.04-0.505,0.081
	c-1.286,0.318-2.275,1.045-2.926,2.221C8.123,2.99,7.911,3.722,7.976,4.521C7.98,4.605,8.011,4.626,8.09,4.628z"/>
</svg>
