<?xml version="1.0" encoding="utf-8"?>
<!-- Generator: Adobe Illustrator 15.0.0, SVG Export Plug-In  -->
<!DOCTYPE svg PUBLIC "-//W3C//DTD SVG 1.1//EN" "http://www.w3.org/Graphics/SVG/1.1/DTD/svg11.dtd" [
	<!ENTITY ns_flows "http://ns.adobe.com/Flows/1.0/">
]>
<svg version="1.1"
	 xmlns="http://www.w3.org/2000/svg" xmlns:xlink="http://www.w3.org/1999/xlink" xmlns:a="http://ns.adobe.com/AdobeSVGViewerExtensions/3.0/"
	 x="0px" y="0px" width="220px" height="200px" viewBox="-10.573 -24.568 220 200" enable-background="new -10.573 -24.568 220 200"
	 xml:space="preserve">
<defs>
</defs>
<path fill="#FED37F" stroke="#999999" stroke-width="8" stroke-miterlimit="10" d="M196.86,106.859
	c0-18.281-12.756-33.55-29.832-37.567c2.611-4.019,4.118-8.739,4.118-13.862c0-14.163-11.552-25.715-25.716-25.715
	c-6.428,0-12.254,2.311-16.674,6.228C121.022,17.159,102.64,4,81.144,4c-28.427,0-51.43,23.003-51.43,51.43
	c0,1.406,0.101,2.913,0.201,4.319C14.647,66.881,4,82.45,4,100.431c0,24.811,20.19,45.001,45.001,45.001h109.288
	C179.584,145.432,196.86,128.154,196.86,106.859z"/>
</svg>
