<?xml version="1.0" encoding="utf-8"?>
<!-- Generator: Adobe Illustrator 15.0.0, SVG Export Plug-In  -->
<!DOCTYPE svg PUBLIC "-//W3C//DTD SVG 1.1//EN" "http://www.w3.org/Graphics/SVG/1.1/DTD/svg11.dtd" [
	<!ENTITY ns_flows "http://ns.adobe.com/Flows/1.0/">
]>
<svg version="1.1"
	 xmlns="http://www.w3.org/2000/svg" xmlns:xlink="http://www.w3.org/1999/xlink" xmlns:a="http://ns.adobe.com/AdobeSVGViewerExtensions/3.0/"
	 x="0px" y="0px" width="55px" height="55px" viewBox="-4 -3 55 55" enable-background="new -4 -3 55 55" xml:space="preserve">
<defs>
</defs>
<g>
	<g>
		<path fill="#FFFFFF" d="M24,0C10.767,0,0,10.767,0,24c0,13.234,10.767,24,24,24c13.234,0,24-10.766,24-24C48,10.767,37.234,0,24,0
			z M24,45.12C12.354,45.12,2.88,35.646,2.88,24S12.354,2.88,24,2.88c11.646,0,21.12,9.475,21.12,21.12S35.646,45.12,24,45.12z
			 M21.625,26.62l-4.365-1.718l4.365-1.682v-1.775L15.36,24.16v1.508l6.265,2.715V26.62z M23.013,29.584
			c0.17,0,0.3-0.037,0.389-0.115c0.089-0.076,0.156-0.184,0.199-0.32s0.094-0.324,0.151-0.561l1.745-7.18
			c0.086-0.34,0.131-0.575,0.131-0.703c0-0.174-0.056-0.312-0.166-0.411c-0.109-0.1-0.268-0.149-0.476-0.149
			c-0.241,0-0.403,0.07-0.486,0.212c-0.083,0.141-0.17,0.402-0.261,0.784l-1.738,7.18c-0.083,0.382-0.125,0.621-0.125,0.716
			C22.378,29.4,22.59,29.584,23.013,29.584z M32.641,24.173l-6.266-2.702v1.75l4.378,1.694l-4.378,1.718v1.763l6.266-2.728V24.173z
			 M36.672,11.328H11.328c-0.955,0-1.728,0.773-1.728,1.728v21.888c0,0.954,0.773,1.728,1.728,1.728h25.344
			c0.955,0,1.729-0.773,1.729-1.728V13.056C38.4,12.102,37.627,11.328,36.672,11.328z M32.353,12.48
			c0.634,0,1.151,0.517,1.151,1.152c0,0.636-0.518,1.152-1.151,1.152c-0.636,0-1.152-0.517-1.152-1.152
			C31.2,12.997,31.717,12.48,32.353,12.48z M29.184,12.48c0.636,0,1.152,0.517,1.152,1.152c0,0.636-0.517,1.152-1.152,1.152
			c-0.635,0-1.151-0.517-1.151-1.152C28.032,12.997,28.549,12.48,29.184,12.48z M36.672,34.944H11.328V15.937h25.344V34.944z
			 M35.52,14.784c-0.635,0-1.152-0.517-1.152-1.152c0-0.635,0.518-1.152,1.152-1.152c0.636,0,1.152,0.517,1.152,1.152
			C36.672,14.268,36.155,14.784,35.52,14.784z"/>
	</g>
</g>
</svg>
