<?xml version="1.0" encoding="utf-8"?>
<!-- Generator: Adobe Illustrator 15.0.0, SVG Export Plug-In  -->
<!DOCTYPE svg PUBLIC "-//W3C//DTD SVG 1.1//EN" "http://www.w3.org/Graphics/SVG/1.1/DTD/svg11.dtd" [
	<!ENTITY ns_flows "http://ns.adobe.com/Flows/1.0/">
]>
<svg version="1.1"
	 xmlns="http://www.w3.org/2000/svg" xmlns:xlink="http://www.w3.org/1999/xlink" xmlns:a="http://ns.adobe.com/AdobeSVGViewerExtensions/3.0/"
	 x="0px" y="0px" width="70px" height="15px" viewBox="-4.001 -3 70 15" enable-background="new -4.001 -3 70 15"
	 xml:space="preserve">
<defs>
</defs>
<g>
	<g>
		<path fill-rule="evenodd" clip-rule="evenodd" fill="#FFC012" d="M6.879,3.142L5.174,0L3.469,3.142L0,3.819l2.415,2.62L1.976,10
			l3.198-1.523L8.372,10L7.934,6.439l2.415-2.62L6.879,3.142z M20.292,3.142L18.586,0l-1.706,3.142l-3.469,0.677l2.415,2.62
			L15.389,10l3.198-1.523L21.785,10l-0.438-3.561l2.415-2.62L20.292,3.142z M33.704,3.142L31.999,0l-1.706,3.142l-3.469,0.677
			l2.415,2.62L28.801,10l3.198-1.523L35.197,10l-0.438-3.561l2.414-2.62L33.704,3.142z M47.117,3.142L45.411,0l-1.705,3.142
			l-3.469,0.677l2.414,2.62L42.214,10l3.197-1.523L48.609,10l-0.438-3.561l2.415-2.62L47.117,3.142z M63.999,3.819l-3.47-0.677
			L58.823,0l-1.705,3.142l-3.469,0.677l2.415,2.62L55.626,10l3.197-1.523L62.022,10l-0.439-3.561L63.999,3.819z"/>
	</g>
</g>
</svg>
