<?xml version="1.0" encoding="utf-8"?>
<!-- Generator: Adobe Illustrator 15.0.0, SVG Export Plug-In  -->
<!DOCTYPE svg PUBLIC "-//W3C//DTD SVG 1.1//EN" "http://www.w3.org/Graphics/SVG/1.1/DTD/svg11.dtd" [
	<!ENTITY ns_flows "http://ns.adobe.com/Flows/1.0/">
]>
<svg version="1.1"
	 xmlns="http://www.w3.org/2000/svg" xmlns:xlink="http://www.w3.org/1999/xlink" xmlns:a="http://ns.adobe.com/AdobeSVGViewerExtensions/3.0/"
	 x="0px" y="0px" width="100px" height="70px" viewBox="-30.283 -15 100 70" enable-background="new -30.283 -15 100 70"
	 xml:space="preserve">
<defs>
</defs>
<path fill="#FFFFFF" d="M23.838,0c-6.477,0-12.209,3.213-15.68,8.117c0.719,0.466,1.419,1.104,2.096,1.925
	c2.589-3.847,6.774-6.545,11.617-7.125l1.967,3.308l1.967-3.308c7.444,0.892,13.361,6.772,14.259,14.17l-3.329,1.956l3.329,1.955
	c-0.6,4.946-3.45,9.204-7.493,11.757c0.257,0.584,0.402,1.18,0.428,1.795c0.019,0.449-0.027,0.875-0.121,1.277
	c6.019-3.214,10.121-9.531,10.121-16.784C42.999,8.542,34.404,0,23.838,0z M28.728,31.36c-4.417-3.528-5.652-1.794-7.656,0.198
	c-1.399,1.391-4.939-1.515-7.997-4.553c-3.057-3.039-5.979-6.557-4.58-7.948c2.004-1.992,3.748-3.22,0.197-7.608
	c-3.549-4.39-5.915-1.02-7.856,0.91c-2.241,2.227-0.118,10.525,8.134,18.727c8.253,8.2,16.603,10.31,18.842,8.083
	C29.752,37.24,33.145,34.89,28.728,31.36z M15.276,22.021c0-3.901,4.597-4.597,4.597-6.119c0-0.739-0.596-1.049-1.146-1.049
	c-1.012,0-1.576,1.124-1.576,1.124l-1.934-1.286c0,0,0.981-2.276,3.748-2.276c1.74,0,3.629,0.991,3.629,3.237
	c0,3.296-4.284,3.932-4.358,5.292h4.522v2.217h-7.363C15.321,22.746,15.276,22.377,15.276,22.021z M23.845,19.037l4.105-6.445h3.183
	v5.869h1.265v2.143h-1.265v2.557H28.56v-2.557h-4.715V19.037z M28.56,18.46v-2.365c0-0.577,0.089-1.183,0.089-1.183H28.62
	c0,0-0.223,0.651-0.521,1.094l-1.606,2.424v0.03H28.56L28.56,18.46z"/>
</svg>
