<?xml version="1.0" encoding="utf-8"?>
<!-- Generator: Adobe Illustrator 15.0.0, SVG Export Plug-In  -->
<!DOCTYPE svg PUBLIC "-//W3C//DTD SVG 1.1//EN" "http://www.w3.org/Graphics/SVG/1.1/DTD/svg11.dtd" [
	<!ENTITY ns_flows "http://ns.adobe.com/Flows/1.0/">
]>
<svg version="1.1"
	 xmlns="http://www.w3.org/2000/svg" xmlns:xlink="http://www.w3.org/1999/xlink" xmlns:a="http://ns.adobe.com/AdobeSVGViewerExtensions/3.0/"
	 x="0px" y="0px" width="100px" height="70px" viewBox="-15 -16 100 70" enable-background="new -15 -16 100 70"
	 xml:space="preserve">
<defs>
</defs>
<path fill="#FFFFFF" d="M26.308,28.084c-3.277,0-5.926,2.67-5.926,5.963c0,3.283,2.648,5.953,5.926,5.953s5.926-2.67,5.926-5.953
	C32.233,30.754,29.585,28.084,26.308,28.084z M26.308,37.023c-1.639,0-2.963-1.34-2.963-2.977c0-1.646,1.324-2.977,2.963-2.977
	s2.963,1.33,2.963,2.977C29.271,35.684,27.946,37.023,26.308,37.023z M71,23.679v6.357c0,1.586-1.279,2.872-2.857,2.872h-3.059
	c-0.553-3.811-3.82-6.739-7.765-6.739c-3.935,0-7.202,2.929-7.755,6.739h-15.5c-0.553-3.811-3.82-6.739-7.755-6.739
	s-7.202,2.929-7.755,6.739h-3.83c-1.579,0-2.858-1.287-2.858-2.872v-6.357H71L71,23.679z M57.327,28.084
	c-3.277,0-5.935,2.67-5.935,5.963c0,3.283,2.657,5.953,5.935,5.953c3.268,0,5.926-2.67,5.926-5.953
	C63.253,30.754,60.595,28.084,57.327,28.084z M57.327,37.023c-1.639,0-2.963-1.34-2.963-2.977c0-1.646,1.324-2.977,2.963-2.977
	c1.629,0,2.963,1.33,2.963,2.977C60.29,35.684,58.956,37.023,57.327,37.023z M69.874,17.277L58.642,6.116
	c-0.714-0.708-1.677-1.11-2.677-1.11h-5.668V2.872C50.297,1.283,49.02,0,47.438,0H14.723c-1.572,0-2.858,1.283-2.858,2.872v0.45
	L0.267,4.665l20.551,2.688L0,9.431l20.745,2.963L0,14.201l11.866,2.249l-0.001,5.642h59.133v-2.097
	C70.998,18.971,70.588,17.995,69.874,17.277z M64.977,17.65H54.107c-0.248,0-0.448-0.201-0.448-0.45V8.768
	c0-0.249,0.2-0.45,0.448-0.45h2.066c0.115,0,0.229,0.048,0.314,0.125l8.794,8.433C65.577,17.152,65.377,17.65,64.977,17.65z"/>
</svg>
