<?xml version="1.0" encoding="utf-8"?>
<!-- Generator: Adobe Illustrator 15.0.0, SVG Export Plug-In  -->
<!DOCTYPE svg PUBLIC "-//W3C//DTD SVG 1.1//EN" "http://www.w3.org/Graphics/SVG/1.1/DTD/svg11.dtd" [
	<!ENTITY ns_flows "http://ns.adobe.com/Flows/1.0/">
]>
<svg version="1.1"
	 xmlns="http://www.w3.org/2000/svg" xmlns:xlink="http://www.w3.org/1999/xlink" xmlns:a="http://ns.adobe.com/AdobeSVGViewerExtensions/3.0/"
	 x="0px" y="0px" width="55px" height="55px" viewBox="-4 -3 55 55" enable-background="new -4 -3 55 55" xml:space="preserve">
<defs>
</defs>
<g>
	<g>
		<path fill="#FFFFFF" d="M24,0C10.767,0,0,10.767,0,24c0,13.234,10.767,24,24,24s24-10.766,24-24C48,10.767,37.233,0,24,0z
			 M24,45.12C12.354,45.12,2.88,35.646,2.88,24S12.354,2.88,24,2.88S45.12,12.354,45.12,24S35.646,45.12,24,45.12z M30.742,9.6
			l-3.504,3.056l-3.504,3.056h3.835C26.278,23.642,18.95,29.813,10.611,28.5c-0.367-0.057-0.516,0.437-0.155,0.563
			c10.378,3.61,22.334-2.323,24.063-13.351l3.23,0l-3.503-3.056L30.742,9.6z M26.392,38.4h3.587V25.959
			c-1.077,0.995-2.282,1.863-3.587,2.589V38.4z M21.011,38.4h3.587v-8.973c-1.14,0.485-2.34,0.869-3.587,1.135V38.4z M31.772,24.034
			V38.4h3.587V16.608h-0.091C34.706,19.39,33.484,21.907,31.772,24.034z M10.249,38.4h3.588v-7.598
			c-1.219-0.178-2.418-0.465-3.588-0.865V38.4z M15.63,30.982V38.4h3.588v-7.535c-0.816,0.099-1.647,0.15-2.492,0.15
			C16.359,31.016,15.994,31.002,15.63,30.982z"/>
	</g>
</g>
</svg>
