<?xml version="1.0" encoding="utf-8"?>
<!-- Generator: Adobe Illustrator 15.0.0, SVG Export Plug-In  -->
<!DOCTYPE svg PUBLIC "-//W3C//DTD SVG 1.1//EN" "http://www.w3.org/Graphics/SVG/1.1/DTD/svg11.dtd" [
	<!ENTITY ns_flows "http://ns.adobe.com/Flows/1.0/">
]>
<svg version="1.1"
	 xmlns="http://www.w3.org/2000/svg" xmlns:xlink="http://www.w3.org/1999/xlink" xmlns:a="http://ns.adobe.com/AdobeSVGViewerExtensions/3.0/"
	 x="0px" y="0px" width="55px" height="55px" viewBox="-4 -3 55 55" enable-background="new -4 -3 55 55" xml:space="preserve">
<defs>
</defs>
<g>
	<g>
		<path fill="#FFFFFF" d="M24,0C10.767,0,0,10.767,0,24c0,13.234,10.767,24,24,24c13.234,0,24-10.766,24-24C48,10.767,37.234,0,24,0
			z M24,45.12C12.354,45.12,2.88,35.646,2.88,24S12.354,2.88,24,2.88c11.646,0,21.12,9.475,21.12,21.12S35.646,45.12,24,45.12z
			 M27.722,36.883c-0.499-0.368-0.552-0.92-0.552-0.92l-0.188-1.195h-5.965l-0.188,1.195c0,0-0.052,0.552-0.551,0.92
			c-0.499,0.367-0.893,0.682-0.499,0.734c0.379,0.051,3.958,0.005,4.221,0c0.265,0.005,3.842,0.051,4.221,0
			C28.613,37.564,28.221,37.25,27.722,36.883z M19.592,25.326c-0.52,1.601-0.718,1.985-2.312,1.997
			c-1.594,0.012,2.236,0.877,4.91-0.229S20.55,22.801,19.592,25.326z M22.553,24.417c0.773,0.623,0.587,0.668,1.394-0.334
			l9.613-10.459c0.807-1.002,0.835-2.319,0.062-2.942c-0.772-0.623-2.055-0.316-2.862,0.686l-8.176,11.617
			C21.776,23.985,21.78,23.794,22.553,24.417z M32.773,10.818c-1.114,0.658-1.254,1.254-1.254,1.254s-0.119-0.139-0.518-0.458
			C31.6,10.639,32.773,10.818,32.773,10.818z M37.248,14.607h-3.596l-1.588,1.728h4.607v13.824H11.329V16.335h14.744l1.217-1.728
			H10.752c-0.636,0-1.152,0.516-1.152,1.152v16.704c0,0.637,0.516,1.152,1.152,1.152h26.496c0.637,0,1.152-0.516,1.152-1.152V15.759
			C38.4,15.123,37.885,14.607,37.248,14.607z"/>
	</g>
</g>
</svg>
