<?xml version="1.0" encoding="utf-8"?>
<!-- Generator: Adobe Illustrator 15.0.0, SVG Export Plug-In  -->
<!DOCTYPE svg PUBLIC "-//W3C//DTD SVG 1.1//EN" "http://www.w3.org/Graphics/SVG/1.1/DTD/svg11.dtd" [
	<!ENTITY ns_flows "http://ns.adobe.com/Flows/1.0/">
]>
<svg version="1.1"
	 xmlns="http://www.w3.org/2000/svg" xmlns:xlink="http://www.w3.org/1999/xlink" xmlns:a="http://ns.adobe.com/AdobeSVGViewerExtensions/3.0/"
	 x="0px" y="0px" width="100px" height="70px" viewBox="-34 -16 100 70" enable-background="new -34 -16 100 70"
	 xml:space="preserve">
<defs>
</defs>
<path fill="#FFFFFF" d="M16.807,2.857h-0.892c-0.476,0-0.862-0.381-0.862-0.852V1.978C15.053,0.885,14.156,0,13.049,0h-0.046
	C11.897,0,11,0.885,11,1.977v0.029c0,0.47-0.386,0.851-0.863,0.851H9.246c-0.949,0-1.719,0.76-1.719,1.698v0.034
	c0,0.937,0.77,1.697,1.719,1.697h7.561c0.95,0,1.72-0.76,1.72-1.697V4.555C18.526,3.617,17.756,2.857,16.807,2.857z M13.026,2.857
	c-0.479,0-0.869-0.384-0.869-0.857c0-0.473,0.389-0.857,0.869-0.857S13.895,1.527,13.895,2C13.895,2.474,13.506,2.857,13.026,2.857z
	 M16.893,36H2.316C1.037,36,0,34.977,0,33.715V6.286C0,5.023,1.037,4,1.737,4h4.692C6.39,4.19,6.369,4.387,6.369,4.589
	c0,1.566,1.291,2.84,2.877,2.84h7.561c1.587,0,2.877-1.274,2.877-2.874c0-0.19-0.02-0.375-0.057-0.554h3.531
	c1.857,0,2.895,1.023,2.895,2.285v17.172c-0.192-0.013-0.384-0.029-0.579-0.029c-0.801,0-1.574,0.111-2.315,0.301V10.286H2.895
	v22.856H16.24C16.303,34.147,16.525,35.109,16.893,36z M25.474,25.143c-4.157,0-7.526,3.326-7.526,7.429S21.316,40,25.474,40
	S33,36.674,33,32.571S29.631,25.143,25.474,25.143z M30.392,31.045l-4.632,5.143c-0.228,0.254-0.546,0.385-0.865,0.385
	c-0.254,0-0.51-0.083-0.723-0.252l-2.896-2.285c-0.499-0.394-0.58-1.113-0.181-1.605c0.399-0.494,1.129-0.573,1.628-0.18
	l2.036,1.608l3.901-4.332c0.425-0.472,1.156-0.515,1.634-0.095C30.773,29.852,30.816,30.573,30.392,31.045z M20.264,20H5.21
	c-0.32,0-0.579-0.255-0.579-0.571v-0.571c0-0.315,0.259-0.572,0.579-0.572h15.053c0.319,0,0.578,0.256,0.578,0.572v0.571
	C20.842,19.745,20.583,20,20.264,20z M20.264,14.857H5.21c-0.32,0-0.579-0.256-0.579-0.572v-0.571c0-0.316,0.259-0.572,0.579-0.572
	h15.053c0.319,0,0.578,0.256,0.578,0.572v0.571C20.842,14.602,20.583,14.857,20.264,14.857z M17.368,24.572H5.21
	c-0.32,0-0.579-0.257-0.579-0.572v-0.571c0-0.315,0.259-0.571,0.579-0.571h12.158c0.319,0,0.579,0.256,0.579,0.571V24
	C17.947,24.315,17.688,24.572,17.368,24.572z M16.21,29.715h-11c-0.32,0-0.579-0.256-0.579-0.572v-0.57
	C4.632,28.256,4.891,28,5.21,28h11c0.32,0,0.579,0.256,0.579,0.572v0.57C16.79,29.459,16.53,29.715,16.21,29.715z"/>
</svg>
