<?xml version="1.0" encoding="utf-8"?>
<!-- Generator: Adobe Illustrator 15.0.0, SVG Export Plug-In  -->
<!DOCTYPE svg PUBLIC "-//W3C//DTD SVG 1.1//EN" "http://www.w3.org/Graphics/SVG/1.1/DTD/svg11.dtd" [
	<!ENTITY ns_flows "http://ns.adobe.com/Flows/1.0/">
]>
<svg version="1.1"
	 xmlns="http://www.w3.org/2000/svg" xmlns:xlink="http://www.w3.org/1999/xlink" xmlns:a="http://ns.adobe.com/AdobeSVGViewerExtensions/3.0/"
	 x="0px" y="0px" width="220px" height="200px" viewBox="-24.63 -13.568 220 200" enable-background="new -24.63 -13.568 220 200"
	 xml:space="preserve">
<defs>
</defs>
<path fill="#34495E" stroke="#999999" stroke-width="8" stroke-miterlimit="10" d="M145.446,36.144c0,5.324-4.32,9.643-9.644,9.643
	s-9.644-4.319-9.644-9.643s4.32-9.643,9.644-9.643S145.446,30.82,145.446,36.144z M167.946,7.214c0-1.808-1.607-3.214-3.415-3.214
	c-34.956,0-54.142,8.036-79.254,33.048c-5.726,5.826-11.652,12.456-17.679,19.587l-38.07,2.009
	c-1.004,0.101-2.009,0.703-2.612,1.607l-22.5,38.572c-0.703,1.206-0.502,2.813,0.502,3.918l6.429,6.429
	c0.603,0.603,1.506,0.904,2.31,0.904c0.301,0,0.603,0,0.904-0.102l27.724-8.537l28.226,28.226l-8.538,27.724
	c-0.301,1.105,0,2.311,0.803,3.215l6.429,6.429c0.703,0.603,1.506,0.903,2.31,0.903c0.603,0,1.105-0.1,1.607-0.401l38.572-22.501
	c0.903-0.602,1.507-1.606,1.606-2.611l2.01-38.07c7.132-6.026,13.762-11.953,19.588-17.678
	C158.705,62.763,167.946,40.563,167.946,7.214z"/>
</svg>
