<?xml version="1.0" encoding="utf-8"?>
<!-- Generator: Adobe Illustrator 15.0.0, SVG Export Plug-In  -->
<!DOCTYPE svg PUBLIC "-//W3C//DTD SVG 1.1//EN" "http://www.w3.org/Graphics/SVG/1.1/DTD/svg11.dtd" [
	<!ENTITY ns_flows "http://ns.adobe.com/Flows/1.0/">
]>
<svg version="1.1"
	 xmlns="http://www.w3.org/2000/svg" xmlns:xlink="http://www.w3.org/1999/xlink" xmlns:a="http://ns.adobe.com/AdobeSVGViewerExtensions/3.0/"
	 x="0px" y="0px" width="220px" height="200px" viewBox="-11.573 -6.711 220 200" enable-background="new -11.573 -6.711 220 200"
	 xml:space="preserve">
<defs>
</defs>
<path fill="#85D6DE" stroke="#999999" stroke-width="6" stroke-miterlimit="10" d="M62.566,93.002
	c-5.223-7.534-8.136-16.574-8.136-25.715c0-2.21,0.2-4.42,0.502-6.63c-4.319,1.507-8.739,2.311-13.359,2.311
	c-13.561,0-24.008-8.538-26.117-8.538C2.699,54.43,3,81.752,3,89.888c0,11.15,9.442,15.971,19.486,15.971h13.46
	C42.677,97.823,52.12,93.303,62.566,93.002z M170.147,156.988c0-22.702-5.324-57.558-34.756-57.558
	c-3.415,0-15.87,13.962-35.96,13.962S66.885,99.431,63.47,99.431c-29.432,0-34.755,34.855-34.755,57.558
	c0,16.271,10.748,26.016,26.819,26.016h87.792C159.399,183.004,170.147,173.26,170.147,156.988z M67.288,28.715
	C67.288,14.552,55.736,3,41.573,3S15.858,14.552,15.858,28.715S27.41,54.43,41.573,54.43S67.288,42.878,67.288,28.715z
	 M138.003,67.287c0-21.295-17.277-38.572-38.572-38.572S60.859,45.992,60.859,67.287s17.277,38.572,38.572,38.572
	S138.003,88.582,138.003,67.287z M195.862,89.888c0-8.136,0.301-35.458-12.456-35.458c-2.109,0-12.556,8.538-26.116,8.538
	c-4.621,0-9.041-0.804-13.36-2.311c0.302,2.21,0.503,4.42,0.503,6.63c0,9.141-2.913,18.181-8.137,25.715
	c10.446,0.301,19.889,4.821,26.619,12.857h13.46C186.419,105.859,195.862,101.038,195.862,89.888z M183.004,28.715
	C183.004,14.552,171.453,3,157.29,3s-25.715,11.552-25.715,25.715S143.126,54.43,157.29,54.43S183.004,42.878,183.004,28.715z"/>
</svg>
