<?xml version="1.0" encoding="utf-8"?>
<!-- Generator: Adobe Illustrator 15.0.0, SVG Export Plug-In  -->
<!DOCTYPE svg PUBLIC "-//W3C//DTD SVG 1.1//EN" "http://www.w3.org/Graphics/SVG/1.1/DTD/svg11.dtd" [
	<!ENTITY ns_flows "http://ns.adobe.com/Flows/1.0/">
]>
<svg version="1.1"
	 xmlns="http://www.w3.org/2000/svg" xmlns:xlink="http://www.w3.org/1999/xlink" xmlns:a="http://ns.adobe.com/AdobeSVGViewerExtensions/3.0/"
	 x="0px" y="0px" width="80px" height="80px" viewBox="-15 -17 80 80" enable-background="new -15 -17 80 80" xml:space="preserve">
<defs>
</defs>
<g>
	<g>
		<path fill-rule="evenodd" clip-rule="evenodd" fill="#FFFFFF" d="M49,8.563H32.683C33.493,7.652,34,6.461,34,5.141
			C34,2.302,31.72,0,28.906,0c-1.778,0-3.339,0.922-4.25,2.315C23.745,0.922,22.184,0,20.406,0c-2.813,0-5.094,2.302-5.094,5.141
			c0,1.32,0.507,2.512,1.318,3.422H2c-1.104,0-2,0.896-2,2v8c0,1.104,0.896,2,2,2h1.406V46c0,1.104,0.896,2,2,2h40.188
			c1.104,0,2-0.896,2-2V20.563H49c1.104,0,2-0.896,2-2v-8C51,9.458,50.104,8.563,49,8.563z M45.552,10.281l-8.491,8.563h-9.494
			l8.49-8.563H45.552z M33.652,10.281l-5.604,5.652l-1.503-5.652H33.652z M28.906,1.719c1.881,0,3.406,1.532,3.406,3.422
			s-1.525,3.422-3.406,3.422S25.5,7.03,25.5,5.141S27.025,1.719,28.906,1.719z M24.645,7.944c0.143,0.222,0.311,0.422,0.486,0.619
			h-0.948C24.353,8.371,24.502,8.16,24.645,7.944z M24.515,10.281h0.271l1.843,6.938l0.196-0.053l-1.664,1.678h-9.495l6.575-6.63
			l-1.212,4.562l1.642,0.443L24.515,10.281z M15.808,20.563L5.094,31.366v-9.804c0-0.553,0.448-1,1-1H15.808z M20.406,1.719
			c1.881,0,3.406,1.532,3.406,3.422s-1.525,3.422-3.406,3.422S17,7.03,17,5.141S18.525,1.719,20.406,1.719z M1.847,18.354
			c-0.092-0.151-0.16-0.319-0.16-0.51v-6.563c0-0.553,0.448-1,1-1h7.165L1.847,18.354z M3.766,18.844l8.492-8.563h9.495
			l-8.492,8.563H3.766z M5.094,33.79l13.118-13.228h11.197L5.094,45.08V33.79z M5.201,45.714l0.449,0.452
			C5.455,46.067,5.297,45.911,5.201,45.714z M6.307,46.281l25.504-25.719h12.896l-24.574,24.78l0.931,0.938H6.307z M45.906,45.281
			c0,0.553-0.447,1-1,1h-9.7l10.7-10.79V45.281z M45.906,33.068L32.803,46.281H21.606l24.3-24.504V33.068z M49.313,17.844
			c0,0.553-0.447,1-1,1h-8.847l8.491-8.563h0.355c0.553,0,1,0.447,1,1V17.844z"/>
	</g>
</g>
</svg>
