<?xml version="1.0" encoding="utf-8"?>
<!-- Generator: Adobe Illustrator 15.0.0, SVG Export Plug-In  -->
<!DOCTYPE svg PUBLIC "-//W3C//DTD SVG 1.1//EN" "http://www.w3.org/Graphics/SVG/1.1/DTD/svg11.dtd" [
	<!ENTITY ns_flows "http://ns.adobe.com/Flows/1.0/">
]>
<svg version="1.1"
	 xmlns="http://www.w3.org/2000/svg" xmlns:xlink="http://www.w3.org/1999/xlink" xmlns:a="http://ns.adobe.com/AdobeSVGViewerExtensions/3.0/"
	 x="0px" y="0px" width="80px" height="80px" viewBox="-20 -17 80 80" enable-background="new -20 -17 80 80" xml:space="preserve">
<defs>
</defs>
<g>
	<g>
		<path fill="#FFFFFF" d="M37.5,35.188h-1.937l-2.56-2.909c-3.218-3.633-3.442-10.242-3.022-15.344
			c0.174-0.201,0.348-0.379,0.532-0.412c0.023-0.004,0.049-0.006,0.074-0.006c0.428,0,1.006,0.577,1.426,0.577
			c0.047,0,0.09-0.007,0.132-0.021c0.454-0.168,0.488-1.239,0.901-1.48c0.086-0.051,0.195-0.069,0.316-0.069
			c0.317,0,0.721,0.124,1.036,0.124c0.146,0,0.274-0.026,0.366-0.104c0.367-0.312,0.038-1.331,0.347-1.701
			c0.308-0.37,1.358-0.218,1.601-0.639c0.238-0.417-0.416-1.261-0.25-1.719c0.162-0.45,1.201-0.671,1.285-1.153
			c0.082-0.471-0.819-1.036-0.819-1.53c0-0.493,0.901-1.059,0.819-1.527c-0.083-0.483-1.123-0.704-1.285-1.154
			c-0.165-0.458,0.488-1.302,0.25-1.719c-0.24-0.42-1.292-0.269-1.6-0.639c-0.309-0.37,0.021-1.39-0.346-1.701
			c-0.092-0.078-0.221-0.104-0.367-0.104c-0.315,0-0.718,0.123-1.035,0.123c-0.121,0-0.23-0.019-0.317-0.069
			c-0.413-0.241-0.446-1.313-0.901-1.48c-0.041-0.015-0.085-0.021-0.131-0.021c-0.42,0-0.998,0.577-1.426,0.577
			c-0.025,0-0.051-0.002-0.075-0.006C30.049,0.995,29.652,0,29.164,0s-0.885,0.995-1.35,1.077c-0.023,0.005-0.049,0.007-0.074,0.007
			c-0.428,0-1.006-0.578-1.426-0.578c-0.046,0-0.09,0.007-0.132,0.022c-0.454,0.167-0.488,1.239-0.9,1.479
			c-0.087,0.051-0.196,0.069-0.317,0.069c-0.317,0-0.72-0.124-1.035-0.124c-0.147,0-0.275,0.027-0.367,0.105
			c-0.367,0.311-0.037,1.33-0.346,1.701c-0.309,0.369-1.359,0.218-1.601,0.638c-0.239,0.417,0.415,1.261,0.25,1.72
			c-0.163,0.449-1.202,0.671-1.286,1.153c-0.052,0.3,0.295,0.639,0.554,0.974c-3.417,1.143-6.347,2.986-8.711,5.51
			c-6.179,6.598-7.466,16.159-7.674,21.434H3.5c-1.933,0-3.5,1.567-3.5,3.5V44.5C0,46.433,1.567,48,3.5,48h34
			c1.934,0,3.5-1.567,3.5-3.5v-5.813C41,36.755,39.434,35.188,37.5,35.188z M23.354,6.664c0.157-0.435,0.144-0.849,0.073-1.209
			c0.346-0.117,0.707-0.313,1.002-0.667s0.422-0.748,0.478-1.112c0.019,0.001,0.038,0.001,0.058,0.001
			c0.414,0,0.788-0.096,1.11-0.284c0.396-0.23,0.647-0.555,0.821-0.877c0.249,0.098,0.53,0.168,0.844,0.168l0.212-0.006l0.136-0.024
			c0.454-0.08,0.803-0.302,1.076-0.546c0.274,0.244,0.623,0.466,1.077,0.546l0.21,0.03h0.139c0.313,0,0.594-0.07,0.843-0.167
			c0.175,0.321,0.427,0.646,0.821,0.877c0.322,0.188,0.697,0.284,1.111,0.284c0.02,0,0.038,0,0.057-0.001
			c0.056,0.364,0.184,0.759,0.479,1.113c0.294,0.354,0.656,0.548,1,0.666c-0.07,0.361-0.083,0.774,0.074,1.209
			c0.156,0.434,0.429,0.74,0.712,0.97C35.497,7.95,35.345,8.336,35.345,8.8c0,0.465,0.153,0.851,0.342,1.167
			c-0.283,0.229-0.557,0.536-0.713,0.97c-0.157,0.435-0.144,0.848-0.073,1.209c-0.345,0.117-0.707,0.312-1.002,0.666
			s-0.422,0.749-0.478,1.112c-0.019,0-0.038-0.001-0.058-0.001c-0.414,0-0.788,0.096-1.11,0.284
			c-0.396,0.23-0.647,0.556-0.821,0.877c-0.249-0.097-0.53-0.167-0.844-0.167l-0.212,0.006l-0.136,0.024
			c-0.454,0.08-0.803,0.301-1.076,0.545c-0.273-0.244-0.623-0.465-1.076-0.545l-0.211-0.031h-0.138
			c-0.313,0-0.595,0.071-0.844,0.168c-0.175-0.321-0.427-0.646-0.821-0.878c-0.322-0.188-0.697-0.284-1.111-0.284
			c-0.02,0-0.037,0.001-0.057,0.001c-0.055-0.363-0.184-0.758-0.479-1.112c-0.294-0.354-0.656-0.549-1-0.667
			c0.07-0.36,0.083-0.774-0.074-1.208c-0.155-0.434-0.429-0.74-0.711-0.97c0.188-0.315,0.342-0.701,0.342-1.166
			c0-0.464-0.154-0.851-0.343-1.166C22.925,7.404,23.198,7.098,23.354,6.664z M13.572,14.795c1.938-2.067,4.307-3.645,7.051-4.719
			c-0.035,0.086-0.057,0.171-0.043,0.252c0.083,0.482,1.123,0.704,1.285,1.154c0.166,0.458-0.488,1.302-0.25,1.718
			c0.24,0.421,1.293,0.269,1.6,0.639c0.309,0.371-0.021,1.39,0.346,1.702c0.092,0.078,0.221,0.104,0.367,0.104
			c0.316,0,0.719-0.124,1.035-0.124c0.121,0,0.23,0.019,0.317,0.069c0.413,0.241,0.447,1.313,0.901,1.48
			c0.041,0.016,0.086,0.022,0.131,0.022c0.42,0,0.999-0.578,1.427-0.578c0.025,0,0.05,0.003,0.075,0.007
			c0.214,0.038,0.414,0.271,0.615,0.51c-0.283,3.668-0.165,6.9,0.382,9.584l0.238,1.17l-5.835-6.63
			c-0.148-0.168-0.363-0.265-0.588-0.265c-0.188,0-0.37,0.066-0.512,0.188c-0.322,0.28-0.356,0.769-0.076,1.088l11.458,13.02H6.326
			C6.555,30.082,7.816,20.933,13.572,14.795z M39.438,43.906c0,1.381-1.119,2.5-2.5,2.5H4.063c-1.381,0-2.5-1.119-2.5-2.5v-4.594
			c0-1.381,1.119-2.5,2.5-2.5h32.875c1.381,0,2.5,1.119,2.5,2.5V43.906z"/>
	</g>
</g>
</svg>
